<svg width="24" height="22" viewBox="0 0 24 22" fill="none" xmlns="http://www.w3.org/2000/svg">
<path fill-rule="evenodd" clip-rule="evenodd" d="M2.47052 0.237976C2.15322 -0.0793253 1.63877 -0.0793253 1.32147 0.237976C1.00417 0.555277 1.00417 1.06972 1.32147 1.38702L8.64872 8.71427C8.31689 9.2515 8.125 9.88514 8.125 10.5626C8.125 12.507 9.70134 14.0834 11.6458 14.0834C12.3234 14.0834 12.9569 13.8914 13.4941 13.5596L20.8215 20.887C21.1388 21.2043 21.6532 21.2043 21.9705 20.887C22.2878 20.5697 22.2878 20.0553 21.9705 19.738L2.47052 0.237976ZM12.2832 12.3488L9.85959 9.92514C9.78858 10.1242 9.75 10.3387 9.75 10.5626C9.75 11.6096 10.5988 12.4584 11.6458 12.4584C11.8696 12.4584 12.0841 12.4198 12.2832 12.3488ZM11.6458 4.875C10.9826 4.875 10.3297 4.96362 9.69207 5.1219C9.25656 5.23001 8.81586 4.9646 8.70775 4.52909C8.59964 4.09358 8.86504 3.65288 9.30056 3.54477C10.0524 3.35812 10.8371 3.25 11.6458 3.25C14.9202 3.25 17.8118 5.01859 19.8246 6.68696C20.8425 7.53069 21.6642 8.37257 22.2318 9.00347C22.5161 9.31945 22.7378 9.58389 22.8898 9.77106C22.9658 9.86468 23.0244 9.93907 23.0648 9.99104C23.085 10.017 23.1006 10.0374 23.1116 10.0518L23.1245 10.0688L23.1283 10.0739L23.1299 10.0761C23.1301 10.0764 23.1303 10.0766 22.4791 10.5625L23.1301 11.0486L23.1295 11.0495L23.1283 11.0511L23.1245 11.0562L23.1116 11.0732L23.105 11.0818C23.0947 11.0953 23.0813 11.1128 23.0648 11.134C23.0244 11.1859 22.9658 11.2603 22.8898 11.3539C22.7378 11.5411 22.516 11.8056 22.2318 12.1215C21.6642 12.7524 20.8425 13.5943 19.8246 14.438C19.4791 14.7244 18.9669 14.6765 18.6805 14.331C18.3942 13.9855 18.4421 13.4733 18.7876 13.187C19.7301 12.4057 20.4949 11.6226 21.0237 11.0347C21.1835 10.8571 21.3212 10.6979 21.4354 10.5625C21.3212 10.4271 21.1835 10.2679 21.0237 10.0903C20.4949 9.50243 19.7301 8.71931 18.7876 7.93804C16.8794 6.35641 14.3544 4.875 11.6458 4.875ZM23.1301 11.0486C23.3452 10.7604 23.3454 10.3648 23.1303 10.0766L22.4791 10.5625C23.1303 11.0484 23.1302 11.0485 23.1301 11.0486ZM4.61097 6.79399C4.89734 7.13947 4.84942 7.65168 4.50394 7.93804C3.5614 8.71931 2.79663 9.50243 2.26781 10.0903C2.10805 10.2679 1.97028 10.4271 1.8561 10.5625C1.97028 10.6979 2.10805 10.8571 2.26781 11.0347C2.79663 11.6226 3.5614 12.4057 4.50394 13.187C6.41207 14.7686 8.93707 16.25 11.6458 16.25C12.3145 16.25 12.9727 16.1599 13.6152 15.9992C14.0506 15.8903 14.4917 16.1549 14.6006 16.5902C14.7095 17.0255 14.4449 17.4667 14.0096 17.5756C13.2521 17.7651 12.4611 17.875 11.6458 17.875C8.37135 17.875 5.47969 16.1064 3.46692 14.438C2.44902 13.5943 1.62728 12.7524 1.05971 12.1215C0.775459 11.8055 0.553719 11.5411 0.401752 11.3539C0.325739 11.2603 0.267094 11.1859 0.226725 11.134C0.206537 11.108 0.190912 11.0876 0.179961 11.0732L0.167052 11.0562L0.163252 11.0511L0.161571 11.0489C0.161394 11.0486 0.161234 11.0484 0.812292 10.5626L0.161234 11.0484C-0.0538478 10.7602 -0.0536934 10.3646 0.161389 10.0764C0.16131 10.0765 0.161235 10.0766 0.812423 10.5625L0.161389 10.0764L0.163252 10.0739L0.167053 10.0688L0.179961 10.0518C0.190912 10.0374 0.206538 10.017 0.226725 9.99104C0.267095 9.93907 0.32574 9.86468 0.401753 9.77106C0.55372 9.58389 0.77546 9.31945 1.05972 9.00347C1.62728 8.37257 2.44902 7.53069 3.46692 6.68696C3.8124 6.40059 4.32461 6.44851 4.61097 6.79399Z" fill="#737373"/>
</svg>
