<svg width="120" height="120" viewBox="0 0 120 120" fill="none" xmlns="http://www.w3.org/2000/svg">
<circle cx="60" cy="60" r="60" fill="#FCEBEB"/>
<path fill-rule="evenodd" clip-rule="evenodd" d="M37.8353 92.6672L37.8354 92.6672L37.8356 92.6673L37.8357 92.6673L37.8358 92.6674C38.2001 92.7674 38.5651 92.8677 38.9238 92.9841C49.8287 92.9841 60.7335 92.9841 71.6539 93C73.4219 93 73.6409 91.4583 73.6409 90.3934C73.6409 89.3762 72.9838 88.4226 72.0451 88.1047C71.6226 87.9617 71.1533 87.9299 70.6996 87.9299C60.6083 87.914 50.5014 87.914 40.4101 87.914C37.1716 87.914 35.0594 85.7683 35.0594 82.4783V62.4363C35.0594 59.0986 37.1559 56.9689 40.4414 56.9689C52.1911 56.953 63.9564 56.953 75.7217 56.9689C79.2732 56.9689 80.2276 56.6033 80.5092 55.2365C80.8065 53.7425 79.9303 52.3756 78.3502 52.169C77.2381 52.0292 76.1092 51.9833 74.9819 51.9375H74.9819C74.5709 51.9208 74.1601 51.9041 73.7504 51.8829C73.5962 51.8724 73.4419 51.8757 73.2787 51.8792H73.2786C73.1936 51.881 73.1062 51.8829 73.0151 51.8829V43.2844C73.0151 41.6473 72.8117 40.0262 72.311 38.4686C69.9642 31.1574 62.4545 26.7549 55.0229 28.3125C47.9981 29.7906 42.929 35.9097 43.0229 43.2367C43.0438 44.9961 43.0368 46.7625 43.0299 48.5266V48.5266V48.5267V48.5267V48.527V48.5273V48.5276V48.5279V48.5282C43.0264 49.409 43.0229 50.2892 43.0229 51.1677V51.8829C42.6083 51.8829 42.2064 51.8774 41.8121 51.872H41.8121H41.812H41.8119H41.8119C41.0458 51.8615 40.309 51.8514 39.5653 51.8829C34.4336 52.0895 30.1311 56.4285 30.0686 61.6416C29.9903 68.8256 29.959 76.0255 30.0842 83.2095C30.1624 87.1511 32.1337 90.0756 35.5757 91.8715C36.2794 92.2398 37.0556 92.453 37.8353 92.6672ZM67.9773 51.8193H48.139C48.139 50.7403 48.1142 49.6628 48.0895 48.5874V48.5873V48.5873V48.5873V48.5872C48.0357 46.2412 47.9821 43.905 48.1859 41.5837C48.577 37.2924 51.9564 34.0024 56.165 33.2395C60.6709 32.413 65.1455 34.6859 67.0698 38.8659C67.5392 39.8831 67.8991 41.0434 67.9303 42.14C68.0206 44.4561 68.0051 46.7722 67.9894 49.1062V49.1067V49.1072V49.1077V49.1082C67.9834 50.0089 67.9773 50.9123 67.9773 51.8193ZM80.4383 92.8965C80.5047 92.9243 80.5712 92.9521 80.6338 92.9839C80.978 92.9839 81.3066 92.9839 81.6351 92.968C81.7603 92.9045 81.9011 92.8409 82.0263 92.7932C83.1371 92.3323 83.7942 91.1403 83.5751 89.9959C83.3405 88.7721 82.3235 87.8979 81.1188 87.8979C79.9454 87.8979 78.9285 88.7562 78.6782 89.9482C78.4435 91.1244 79.1006 92.3482 80.2427 92.8091C80.3053 92.8409 80.3718 92.8687 80.4383 92.8965ZM78.6476 80.7776C78.5381 78.9816 78.9449 77.2174 80.1652 75.6916C80.8849 74.7856 81.8236 74.1817 82.8405 73.6731C83.9044 73.1486 84.5928 72.2744 84.8901 71.0983C85.422 68.9209 84.0765 66.7593 81.9175 66.2984C79.8053 65.8534 77.7245 67.2838 77.349 69.4612C77.3173 69.6547 77.2999 69.8554 77.2822 70.0585L77.2822 70.0587L77.2822 70.0589C77.2737 70.156 77.2653 70.2537 77.2552 70.3513C77.1143 71.734 76.0035 72.7195 74.6737 72.6718C73.3438 72.6241 72.3112 71.5433 72.2643 70.1606C72.1548 65.8534 75.5655 61.8163 79.7897 61.2442C84.5459 60.6084 88.7076 63.517 89.7871 68.2056C90.6632 72.0519 88.7701 76.2479 85.3282 78.0597C85.2112 78.1231 85.0903 78.1865 84.9693 78.2499L84.9683 78.2505L84.968 78.2507C84.8468 78.3142 84.7257 78.3777 84.6085 78.4412C83.9514 78.7909 83.6385 79.3471 83.6385 80.0783C83.6318 80.378 83.6337 80.6777 83.6356 80.9774C83.6381 81.377 83.6407 81.7766 83.6228 82.1762C83.5915 83.6385 82.4964 84.7192 81.1196 84.7192C79.7741 84.7192 78.6945 83.6544 78.6319 82.2239C78.6319 82.0248 78.6353 81.8222 78.6389 81.605V81.6048V81.6045V81.6042C78.6431 81.3537 78.6476 81.0839 78.6476 80.7776ZM44.0239 74.4522C45.4007 74.4522 46.5428 73.292 46.5272 71.9092C46.5115 70.5106 45.3694 69.3662 43.9926 69.398C42.6158 69.4139 41.5207 70.5742 41.5363 71.9728C41.5519 73.3397 42.6784 74.4522 44.0239 74.4522ZM53.3803 74.4525C52.0035 74.4366 50.8927 73.2923 50.9084 71.8777C50.924 70.4791 52.0661 69.3506 53.4429 69.3824C54.7884 69.4142 55.8992 70.5585 55.8836 71.9254C55.8992 73.3082 54.7571 74.4684 53.3803 74.4525ZM62.7671 74.452C64.1282 74.452 65.2703 73.2918 65.2703 71.909C65.2547 70.5263 64.1126 69.366 62.7514 69.3819C61.3746 69.3978 60.2638 70.558 60.2795 71.9567C60.3108 73.3236 61.4216 74.452 62.7671 74.452Z" fill="#DD3333"/>
</svg>
