<svg width="19" height="25" viewBox="0 0 19 25" fill="none" xmlns="http://www.w3.org/2000/svg">
<path d="M17.7306 5.21886H15.0755C14.8432 2.29798 12.4288 0 9.4917 0C6.55459 0 4.15677 2.29798 3.91616 5.21886H1.26114C0.572489 5.21886 0 5.79966 0 6.50673V19.8317C0 22.6852 2.28166 25 5.09432 25H13.9057C16.71 25 19 22.6852 19 19.8317V6.50673C19 5.79966 18.4275 5.21886 17.7306 5.21886ZM9.5 0.841751C11.9808 0.841751 14.0218 2.76936 14.2459 5.21886H4.75415C4.97817 2.76936 7.01921 0.841751 9.5 0.841751ZM18.1703 19.8317C18.1703 22.2138 16.262 24.1583 13.9057 24.1583H5.09432C2.73799 24.1583 0.829694 22.2222 0.829694 19.8317V6.50673C0.829694 6.26263 1.02882 6.06061 1.26943 6.06061H17.7306C17.9712 6.06061 18.1703 6.26263 18.1703 6.50673V19.8317Z" fill="black"/>
</svg>
