<svg width="120" height="120" viewBox="0 0 120 120" fill="none" xmlns="http://www.w3.org/2000/svg">
<circle cx="60" cy="60" r="60" fill="#FCEBEB"/>
<path fill-rule="evenodd" clip-rule="evenodd" d="M36.9621 45.4779L36.9622 45.4779C37.7016 45.3529 38.3903 45.2365 39.0936 45.1565C39.6368 45.0847 40.2344 45.0488 40.7595 45.1744C41.7191 45.4257 42.2442 46.3591 42.1718 47.3643C42.0994 48.2977 41.4294 49.0875 40.4517 49.249C38.5417 49.5856 36.6318 49.8893 34.7132 50.1944C34.1763 50.2798 33.6387 50.3653 33.1003 50.4517C32.7925 50.5055 32.4847 50.5594 32.1588 50.5953C30.9456 50.7029 30.0946 50.1824 29.6962 49.0516C28.8271 46.6822 27.9761 44.2949 27.1432 41.9076C26.7086 40.669 27.2699 39.4485 28.4107 39.0536C29.5876 38.6407 30.7464 39.2151 31.2172 40.4536C31.4127 40.9551 31.5935 41.4638 31.7736 41.9705L31.7737 41.9706L31.7737 41.9707C31.8773 42.262 31.9806 42.5527 32.0863 42.841C32.0938 42.8558 32.1044 42.8707 32.1169 42.8881C32.1344 42.9128 32.1557 42.9425 32.1769 42.9846C32.3747 42.713 32.5698 42.4413 32.764 42.1709L32.7641 42.1707L32.7641 42.1707C33.2629 41.4761 33.756 40.7894 34.2773 40.1305C39.2566 33.8302 45.7207 29.8633 53.6877 28.4812C67.9377 26.022 82.7852 33.1481 88.9596 46.2155C91.0057 50.5414 91.9653 55.1006 92.0196 59.8573C92.0378 61.1677 91.0962 62.1369 89.8649 62.1369C88.6337 62.1369 87.7102 61.2036 87.6921 59.8932C87.6016 53.4313 85.5918 47.6156 81.4634 42.5897C76.7013 36.7919 70.5451 33.2378 62.9945 32.466C51.714 31.3172 42.7693 35.5354 36.2328 44.7257C36.0698 44.977 35.9069 45.2462 35.6353 45.695C36.1022 45.6233 36.5404 45.5492 36.9621 45.4779ZM50.211 55.1905C50.2262 54.844 50.2357 54.5016 50.2451 54.1635V54.1635C50.2693 53.2932 50.2928 52.4509 50.4102 51.6364C51.0258 47.2388 55.0093 43.9001 59.5178 43.9001C64.0445 43.9181 67.9918 47.2747 68.5893 51.6903C68.6838 52.4279 68.709 53.1656 68.7351 53.9331L68.7351 53.9336C68.7491 54.3425 68.7633 54.76 68.7885 55.1905H71.1786C72.9168 55.1905 73.7497 56.0162 73.7497 57.7573V73.5351C73.7497 75.2763 72.9349 76.084 71.1786 76.084H47.8752C46.1189 76.084 45.3041 75.2583 45.3041 73.5351V57.6855C45.3041 55.9982 46.137 55.1905 47.8571 55.1905H50.211ZM49.5954 71.7402H69.3498V59.5523H49.5954V71.0222V71.7402ZM54.5566 55.1366H64.3523C64.3523 54.8693 64.3544 54.6081 64.3565 54.3509C64.3605 53.8486 64.3643 53.3618 64.3523 52.875C64.2618 50.3979 62.3425 48.4414 59.7894 48.226C57.4537 48.0285 55.1722 49.7158 54.7377 52.0852C54.6133 52.763 54.6 53.4494 54.5862 54.1558C54.58 54.4782 54.5736 54.8048 54.5566 55.1366ZM81.4763 74.6109C82.0595 74.5173 82.66 74.421 83.2918 74.3246C83.258 74.3877 83.2274 74.4447 83.1994 74.4968C83.0921 74.6966 83.0233 74.8247 82.9658 74.9529C74.6186 88.1459 56.2403 91.8436 43.4388 82.8328C35.5805 77.3043 31.5608 69.6756 31.3073 60.1264C31.2711 58.7801 30.3295 57.8108 29.0802 57.8467C27.8489 57.8826 26.9436 58.8519 26.9617 60.1623C26.9979 63.0522 27.3781 65.8703 28.1386 68.6525C32.7921 85.7406 50.7177 94.8053 66.7965 91.2153C75.1256 89.3485 81.5354 84.6996 86.2794 77.7171C86.4198 77.5006 86.5602 77.2974 86.7469 77.0272C86.7769 76.9838 86.8081 76.9386 86.8407 76.8914C86.8866 77.0326 86.9291 77.1657 86.9695 77.2924C87.0884 77.6653 87.1898 77.9834 87.3115 78.2915C87.3492 78.385 87.3865 78.4789 87.4239 78.5729C87.6374 79.1101 87.8515 79.6488 88.1444 80.1224C88.7238 81.0558 89.7559 81.325 90.7517 80.8763C91.7114 80.4455 92.2908 79.3685 91.9468 78.3813C91.0596 75.8144 90.1542 73.2656 89.2127 70.7347C88.8686 69.8192 88.0538 69.3525 87.0761 69.3884C86.7909 69.4019 86.5057 69.4456 86.2205 69.4894C86.1255 69.504 86.0304 69.5186 85.9353 69.532C85.2743 69.638 84.6119 69.7428 83.9489 69.8476C82.1423 70.1332 80.3311 70.4195 78.5297 70.7347C77.3527 70.9501 76.6647 72.0091 76.8458 73.1938C76.9906 74.2528 77.9865 75.0246 79.1272 74.9529C79.4169 74.9349 79.7066 74.899 79.9963 74.8451C80.4828 74.7703 80.9731 74.6916 81.4763 74.6109Z" fill="#DD3333"/>
</svg>
