<svg width="101" height="101" viewBox="0 0 101 101" fill="none" xmlns="http://www.w3.org/2000/svg">
<path d="M97.0744 24.3041C91.4715 2.17597 64.0868 -0.625453 44.8545 0.098511C9.47473 2.58517 0.535348 15.8369 0.000244141 50.052C0.440918 67.2068 2.361 88.9258 21.31 95.2526C34.2154 100.383 48.1596 100.855 61.8205 99.4705C75.3555 97.9596 91.2827 93.0492 96.0986 78.7903C101.733 61.3522 101.764 41.9625 97.0744 24.3041Z" fill="#F39C12"/>
<path d="M55.9751 72.5144C56.8919 69.4853 55.1806 66.2862 52.153 65.369C49.1253 64.4518 45.9277 66.1638 45.011 69.193C44.0942 72.2221 45.8055 75.4213 48.8331 76.3385C51.8608 77.2557 55.0584 75.5436 55.9751 72.5144Z" fill="white"/>
<path d="M57.9907 29.2265L56.3384 56.1713C56.1457 59.257 53.5847 61.6815 50.5005 61.6815C47.4163 61.6815 44.8553 59.2845 44.6626 56.1713L43.0103 29.2265C42.8175 25.8653 45.4887 23 48.8482 23H52.1252C55.5123 23 58.1834 25.8377 57.9907 29.2265Z" fill="white"/>
</svg>
