<svg width="101" height="101" viewBox="0 0 101 101" fill="none" xmlns="http://www.w3.org/2000/svg">
<path d="M97.0742 24.3041C91.4713 2.17597 64.0866 -0.625453 44.8543 0.098511C9.47449 2.58517 0.535104 15.8369 0 50.052C0.440674 67.2068 2.36075 88.9258 21.3097 95.2526C34.2152 100.383 48.1594 100.855 61.8202 99.4705C75.3552 97.9596 91.2824 93.0492 96.0984 78.7903C101.733 61.3522 101.764 41.9625 97.0742 24.3041Z" fill="#DD3333"/>
<path fill-rule="evenodd" clip-rule="evenodd" d="M32.3229 34.3219C30.3703 36.2745 30.3703 39.4403 32.3229 41.393L42.9297 51.9998L32.323 62.6064C30.3704 64.559 30.3704 67.7249 32.323 69.6775C34.2756 71.6301 37.4415 71.6301 39.3941 69.6775L50.0008 59.0708L60.6072 69.6772C62.5598 71.6298 65.7256 71.6298 67.6782 69.6772C69.6308 67.7246 69.6308 64.5588 67.6782 62.6062L57.0718 51.9998L67.6784 41.3932C69.631 39.4406 69.631 36.2748 67.6784 34.3222C65.7257 32.3695 62.5599 32.3695 60.6073 34.3222L50.0008 44.9287L39.394 34.3219C37.4413 32.3693 34.2755 32.3693 32.3229 34.3219Z" fill="white"/>
</svg>
