<svg width="23" height="14" viewBox="0 0 23 14" fill="none" xmlns="http://www.w3.org/2000/svg">
<path d="M22.994 7.17477C21.0243 10.339 18.3219 12.6291 14.5867 13.5848C10.9956 14.4997 7.62663 13.8878 4.53394 11.8949C2.7564 10.7469 1.32115 9.27261 0.180157 7.52441C-0.0600522 7.16312 -0.0600522 6.83679 0.180157 6.47549C1.92768 3.8532 4.20966 1.8253 7.26632 0.758899C10.9836 -0.534764 14.5747 -0.167644 17.9616 1.80782C19.9554 2.96745 21.5347 4.55248 22.7778 6.45219C22.8559 6.57456 22.9279 6.70276 23 6.82513C22.994 6.94168 22.994 7.05823 22.994 7.17477ZM11.2538 12.5825C12.8872 12.5825 14.3044 12.3086 15.5295 11.8133C17.9616 10.8285 19.8413 9.20268 21.3426 7.13398C21.4266 7.01744 21.4026 6.94751 21.3305 6.84844C20.2496 5.345 18.9465 4.06299 17.3371 3.09565C14.3645 1.30084 11.2057 0.904582 7.89086 2.02925C5.24256 2.92666 3.23681 4.65737 1.63943 6.8601C1.55535 6.97664 1.57937 7.04657 1.65144 7.14564C2.4201 8.21204 3.31488 9.16772 4.34778 9.99519C6.42559 11.6443 8.79165 12.5709 11.2538 12.5825Z" fill="#737373"/>
<path d="M7.17628 6.98775C7.18229 4.68014 9.12198 2.80957 11.5 2.80957C13.8781 2.8154 15.8118 4.69762 15.8058 7.00524C15.7998 9.31285 13.8601 11.1892 11.482 11.1834C9.10396 11.1834 7.17028 9.29537 7.17628 6.98775ZM11.5 9.79069C13.0794 9.78487 14.3705 8.53199 14.3645 6.99358C14.3645 5.461 13.0674 4.20813 11.488 4.20813C9.89665 4.20813 8.60553 5.46683 8.61153 7.01689C8.61754 8.54365 9.91466 9.79069 11.5 9.79069Z" fill="#737373"/>
</svg>
