<svg width="101" height="101" viewBox="0 0 101 101" fill="none" xmlns="http://www.w3.org/2000/svg">
<path d="M97.0742 24.3041C91.4713 2.17597 64.0866 -0.625453 44.8543 0.098511C9.47449 2.58517 0.535104 15.8369 0 50.052C0.440674 67.2069 2.36075 88.9258 21.3097 95.2526C34.2152 100.383 48.1594 100.855 61.8202 99.4705C75.3552 97.9596 91.2824 93.0492 96.0984 78.7903C101.733 61.3522 101.764 41.9625 97.0742 24.3041Z" fill="#1FB141"/>
<path fill-rule="evenodd" clip-rule="evenodd" d="M75.4651 31.3953C77.4559 33.309 77.5185 36.4742 75.6048 38.465L46.7676 68.465C45.8368 69.4334 44.5555 69.9865 43.2123 69.9998C41.8692 70.013 40.5772 69.4853 39.6274 68.5356L25.4645 54.3728C23.5119 52.4201 23.5118 49.2543 25.4645 47.3017C27.4171 45.3491 30.5829 45.3491 32.5355 47.3017L43.0923 57.8584L68.3954 31.535C70.3091 29.5442 73.4743 29.4816 75.4651 31.3953Z" fill="white"/>
</svg>
