<svg width="120" height="120" viewBox="0 0 120 120" fill="none" xmlns="http://www.w3.org/2000/svg">
<circle cx="60" cy="60" r="60" fill="#FCEBEB"/>
<path d="M60 20C37.9014 20 20 37.9014 20 60C20 82.0986 37.9014 100 60 100C82.0986 100 100 82.0986 100 60C100 37.9014 82.0777 20 60 20ZM84.0084 85.7503C77.9433 91.2067 70.9129 94.3966 62.7492 95.0472C61.8048 95.1312 60.8604 95.1731 60.1469 95.2151C50.3882 95.0052 42.1406 91.6894 35.2991 85.0157C35.0472 84.7639 34.8374 84.3022 34.8793 83.9454C35.6768 73.9979 40.5247 66.7576 49.5068 62.2875C50.0105 62.0357 50.3463 62.1196 50.787 62.3715C56.894 65.9182 63.022 65.9391 69.1291 62.4134C69.7167 62.0777 70.1364 62.0567 70.703 62.3505C79.1815 66.6527 83.9874 73.5152 85.0997 82.9591C85.2256 84.1763 84.8898 84.9528 84.0084 85.7503ZM47.4082 47.4082C47.4082 40.4617 53.0955 34.8374 60.063 34.8583C66.9675 34.8793 72.5918 40.5456 72.5918 47.4502C72.5918 54.3757 66.9045 60.021 59.937 60C53.0115 59.958 47.3872 54.3127 47.4082 47.4082ZM89.5698 78.9717C88.5834 74.5016 86.7576 70.4932 84.0294 66.9045C81.3012 63.2949 77.9224 60.4617 73.851 58.3211C77.2508 53.7461 78.447 48.7093 77.1039 43.1899C76.1175 39.0976 73.851 35.8027 70.4722 33.2844C63.7146 28.2476 54.3547 28.7513 48.0378 34.4806C41.9098 40.063 39.958 50.2204 46.128 58.3211C42.0567 60.4617 38.6779 63.3158 35.9496 66.9255C33.2424 70.4932 31.3956 74.4806 30.4302 78.9087C23.3998 69.1081 21.4271 51.1018 32.9906 37.3977C45.7293 22.3085 67.8279 20.6716 82.5393 32.9906C97.6285 45.6243 98.3211 66.0231 89.5698 78.9717Z" fill="#DD3333"/>
</svg>
